<?xml version="1.0" encoding="UTF-8"?>
<!DOCTYPE svg PUBLIC "-//W3C//DTD SVG 1.1//EN" "http://www.w3.org/Graphics/SVG/1.1/DTD/svg11.dtd">
<!-- Creator: CorelDRAW X7 -->
<svg xmlns="http://www.w3.org/2000/svg" xml:space="preserve" width="61.3788mm" height="220.829mm" version="1.1" style="shape-rendering:geometricPrecision; text-rendering:geometricPrecision; image-rendering:optimizeQuality; fill-rule:evenodd; clip-rule:evenodd"
viewBox="0 0 55984 201418"
 xmlns:xlink="http://www.w3.org/1999/xlink">
 <defs>
  <style type="text/css">
   <![CDATA[
    .fil0 {fill:#FAA954}
   ]]>
  </style>
 </defs>
 <g id="Capa_x0020_1">
  <metadata id="CorelCorpID_0Corel-Layer"/>
  <path class="fil0" d="M0 79130c1580,2019 2959,4222 4068,6514 1655,3422 2474,6165 2953,10116 875,7229 -702,15951 -2851,22707 -1020,3209 -2181,6254 -3398,9419 -235,611 -496,1238 -772,1874l0 1646c1460,-3207 2921,-6772 3597,-8366 4857,-11440 6190,-31634 -1874,-43264 -677,-976 -1229,-1688 -1723,-2263l0 1617z"/>
  <path class="fil0" d="M24933 174486c3695,-2889 14455,-23904 16778,-29586 3902,-9543 9701,-25931 9838,-36502 -599,1563 -2689,13376 -4600,18931 -4394,12770 -7267,20599 -13462,32740 -1249,2446 -2757,5006 -4154,7384 -1039,1769 -3940,5536 -4400,7033z"/>
  <path class="fil0" d="M9404 171094l-1527 1347 1527 -1347zm655 -638l-655 638 655 -638zm0 0c646,-1020 1035,-1050 1875,-2385 185,-293 1769,-2100 2000,-2306 -615,1327 -2774,3835 -3875,4691zm8965 -14550c-498,2127 -4022,7464 -5592,8852 -282,1281 -1787,2363 -2566,3535 -749,1125 -1932,2372 -2930,3285 -1904,1740 -4635,4179 -7226,4982 1233,200 533,-20 1067,548 1552,-1078 4513,-3083 6250,-3434 300,-930 2558,-2211 3407,-3117 1023,-1090 1978,-2464 2667,-3858 648,-1138 969,-2080 1406,-3090l5507 -9817c2391,-4754 4265,-9655 6180,-14600 3236,-8354 8407,-23595 8940,-32416 -651,1218 -2404,10723 -3241,13363 -1324,4184 -2454,8510 -3893,12646 -2434,6994 -5974,17250 -9976,23121z"/>
  <path class="fil0" d="M40685 136767c904,-711 3020,-7930 3473,-9369 5008,-15882 9128,-40070 4954,-56025 -727,-2778 -2214,-6917 -3541,-9364 -782,-1443 -3366,-7222 -4949,-7907 1110,4696 17495,19858 5611,62847 -821,2972 -5650,18427 -5548,19818z"/>
  <path class="fil0" d="M40398 67507c-117,1024 1627,7903 1890,9904 2474,18819 -4364,43495 -11032,61028 -760,1998 -3065,6930 -3397,8560 714,-2135 2643,-5872 3699,-8273 3351,-7617 7124,-20182 8806,-28203 2098,-10007 4316,-23003 2697,-33291l-2085 -8774c-80,-212 -106,-302 -191,-465 -221,-417 -294,-391 -387,-486z"/>
  <path class="fil0" d="M20042 40761c-223,-480 277,-226 -1303,-1301 -5380,-3662 -11886,-6501 -18739,-8673l0 887c1867,598 3689,1238 5446,1922 2700,1052 4985,2162 7394,3337 1662,811 5913,3714 7202,3828z"/>
  <path class="fil0" d="M2298 153118c-905,329 -1555,1430 -2298,2245l0 912c1188,-1264 2091,-2420 2298,-3157z"/>
  <path class="fil0" d="M0 112279c361,-1789 584,-3406 639,-4765 -214,840 -427,1665 -639,2476l0 2289z"/>
  <path class="fil0" d="M28119 91482c-286,3710 1301,5049 66,12856 -666,4205 -1149,8072 -1996,12181 -806,3912 -1779,7920 -2538,11794 -678,3466 -2468,8047 -2890,11059 2727,-5360 5172,-16091 5912,-22662 1153,-10241 4232,-13492 1982,-23844l-536 -1384z"/>
  <path class="fil0" d="M16634 111569l146 162c84,-3157 717,-5433 422,-8937 -542,-6456 -2864,-16253 -6763,-21008 886,3479 2738,6344 4293,13451 2123,9702 1062,9679 1902,16332z"/>
  <path class="fil0" d="M0 163329c2780,-2401 5329,-4952 6254,-6146 3040,-3926 8367,-12748 8955,-17755 -360,441 -3636,7696 -4369,9175 -3110,6270 -6537,9535 -10840,13667l0 1059z"/>
  <path class="fil0" d="M1109 140041c1156,-927 4291,-8880 4901,-10773 3056,-9491 4478,-17780 4176,-27825 -100,-3348 -871,-11310 -2783,-13727 264,1977 1064,4156 1434,6321 417,2438 677,4591 736,7077 249,10384 -787,18074 -3913,27802 -650,2023 -4487,10381 -4551,11125z"/>
  <path class="fil0" d="M0 147671c620,-688 1153,-1279 1559,-1712 3087,-3292 5971,-13690 6257,-17123l-512 1087c-3190,8564 -876,5311 -6527,15619 -133,243 -412,618 -777,1066l0 1063z"/>
  <path class="fil0" d="M37373 54136c-386,-1574 -5251,-7928 -6359,-9042 -2884,-2898 -4836,-5009 -8232,-7470 -3766,-2731 -16712,-10327 -20789,-10137l991 654c11401,4811 17694,7166 27523,17125 1544,1565 6065,8289 6866,8870z"/>
  <path class="fil0" d="M20728 84306c1484,2365 2770,11596 3127,12414 879,-10480 -10538,-32345 -18593,-36940 345,1413 3466,3703 4596,5219 1368,1835 2887,3680 4196,5661 2115,3204 5969,9964 6674,13646z"/>
  <path class="fil0" d="M11720 142117c1737,-1990 3409,-10339 4900,-11949 -26,-1056 3063,-12048 3740,-16782 1740,-12166 -512,-16699 -225,-19230 -940,539 32,4707 64,5997 59,2410 85,4777 9,7188 -507,16156 -8076,31880 -8488,34776z"/>
  <path class="fil0" d="M45453 75480c-519,4077 3100,11882 -1271,34712 -494,2581 -2272,8585 -2301,10603 578,-734 531,-1005 850,-2163l1938 -7996c2288,-11022 2983,-21361 1495,-32523 -138,-1035 -155,-1921 -711,-2633z"/>
  <path class="fil0" d="M29677 112808c568,-962 733,-2864 902,-4016 704,-4770 942,-9385 532,-14217 -362,-4278 -2095,-12410 -4637,-15362 350,2523 2718,7012 3793,15306 1062,8203 -784,14392 -590,18289z"/>
  <path class="fil0" d="M9694 165128c-964,1781 -4120,4407 -5804,5430l-2211 1826c1640,-233 4667,-2560 6031,-3664 902,-730 1792,-1518 2621,-2305 923,-877 1214,-1584 2246,-2442 119,-352 4772,-8695 4970,-8926 146,-2247 2530,-6119 2758,-8941 -1576,2845 -2468,7057 -4380,10444 -959,1698 -4995,8330 -6231,8578z"/>
  <path class="fil0" d="M4298 89469c170,3551 1241,3049 1086,11661 -71,3932 -790,7683 -1627,11500 -977,4453 -2459,8722 -3757,12387l0 1718c499,-1172 973,-2364 1374,-3595 1172,-3599 2080,-6535 2976,-10247 1392,-5767 2871,-18346 -52,-23424z"/>
  <path class="fil0" d="M31914 86190c-203,1946 874,8599 909,11605 170,14691 -5196,28033 -5277,32900 1765,-7853 3275,-11733 4896,-21021 932,-5342 1465,-12681 696,-18157 -133,-943 -325,-1863 -488,-2792 -198,-1123 -188,-1862 -736,-2535z"/>
  <path class="fil0" d="M0 170734c1189,-743 2364,-1505 3534,-2259 917,-991 4150,-4127 5061,-4685 221,-1150 1522,-2228 2052,-3377 -2653,2540 -2301,3090 -6952,7111 -1104,954 -2370,1816 -3695,2618l0 592z"/>
  <path class="fil0" d="M4253 77675c836,2962 9580,12431 8306,31797 -293,4454 -1424,7259 -2123,11242 3948,-10690 3865,-23550 -1014,-34236l-4071 -7783c-880,-1464 -83,-604 -1098,-1020z"/>
  <path class="fil0" d="M7183 8500l-2324 -1051c-1158,-295 -2841,-750 -4859,-1314l0 659c3771,1063 6511,1739 7183,1706z"/>
  <path class="fil0" d="M24249 71461c998,628 3406,5208 4204,6593 2252,3911 3062,7525 3461,8136 43,-3273 -4072,-10939 -5809,-13989 -1032,-1811 -7386,-11673 -7537,-12443 -435,493 -390,162 171,1331l5510 10372z"/>
  <path class="fil0" d="M43294 150106c1581,-1716 5549,-12782 6356,-15673 1556,-5575 3736,-12195 4168,-17974l-90 -825c-864,5497 -2737,12856 -4497,18115 -800,2387 -5901,15418 -5937,16357z"/>
  <path class="fil0" d="M2313 57497c-426,-529 -1286,-1178 -2313,-1832l0 659c637,464 1243,884 2313,1173z"/>
  <path class="fil0" d="M0 62075c2174,1678 4457,3660 5794,4924l483 -110c-543,-1522 -4120,-4551 -5485,-5528 -221,-158 -489,-341 -792,-540l0 1254z"/>
  <path class="fil0" d="M11542 194215c2258,432 6194,-5077 7586,-6701l5482 -5337c892,-897 314,-829 1619,-1910l19 -1221 -746 -252c-4439,7010 -6029,8313 -12042,13133 -1404,1126 -1731,621 -1918,2288z"/>
  <path class="fil0" d="M24739 80743c-307,-2827 -4295,-9182 -5799,-11874 -1782,-2218 -3738,-5705 -5791,-7601 -1910,-1763 -4900,-5505 -7319,-6152 443,1079 234,441 1323,1369 565,481 1067,810 1599,1343 4731,4740 8952,9074 12316,15551 1087,2094 2658,5710 3671,7364z"/>
  <path class="fil0" d="M4533 14496c-559,-712 -2899,-1566 -4533,-2121l0 796c2078,757 3880,1343 4533,1325z"/>
  <path class="fil0" d="M0 49721c3614,1204 8637,5038 10348,5241 -6373,-4735 -4030,-2701 -9935,-5860 -111,-60 -250,-129 -413,-206l0 825z"/>
  <path class="fil0" d="M4549 20790c-465,-697 -2453,-1685 -4549,-2595l0 812c2044,910 3950,1715 4549,1783z"/>
  <path class="fil0" d="M18977 91226c-136,-3306 -2536,-7430 -2643,-9546 -1393,-1231 -3416,-7302 -5281,-8486 272,1338 3491,6581 4295,8769 1114,3034 2649,6375 3629,9263z"/>
  <path class="fil0" d="M17062 80794l2947 6905 -195 -2193c-999,-1049 -3655,-11582 -10059,-17912 584,1375 6257,8838 7307,13200z"/>
  <path class="fil0" d="M55232 107522c-337,-2285 757,-11876 751,-15394 -2,-1879 -1091,-14538 -882,-14849l-568 416c2181,4341 -619,27802 699,29827z"/>
  <path class="fil0" d="M20746 179175c-2065,3859 -10023,9510 -11144,11500 1324,-558 6674,-5394 7785,-6620 1153,-1272 5854,-7226 6563,-7597l983 -1972c-1754,662 -2515,3819 -4187,4689z"/>
  <path class="fil0" d="M12418 53514c1054,328 2046,1259 2609,2135 789,274 77,265 536,-518 -102,-42 -2227,-2159 -2720,-2585 -2378,-2055 -8662,-5687 -11384,-5958 1695,608 9942,5483 10959,6926z"/>
  <path class="fil0" d="M7227 115515c551,-1603 1316,-7597 1433,-10008 189,-3872 4,-7109 -245,-10919 -749,1668 -276,8352 -409,10878 -186,3501 -546,6659 -779,10049z"/>
  <path class="fil0" d="M16799 94100c-80,3571 2617,2683 1117,20213 261,-3665 1288,-6149 1175,-10520 -62,-2428 -486,-6457 -1550,-8718 -557,-1185 -68,-439 -742,-975z"/>
  <path class="fil0" d="M32898 64572c-217,-2920 -5356,-12164 -7768,-13220 300,1551 2986,4604 4036,6288 1006,1615 3059,6159 3732,6932z"/>
  <path class="fil0" d="M6711 137960c-375,2202 -1622,4037 -2535,6085 -656,1473 -2486,4582 -2793,5770 1419,-942 5498,-9019 6015,-11004l154 -1111 -841 260z"/>
  <path class="fil0" d="M10135 130600l-172 1001 796 191c1056,-4159 3851,-9510 4261,-13568 -144,2707 -4524,9530 -4885,12376z"/>
  <path class="fil0" d="M28097 176475c640,-285 818,-526 1302,-1341l3368 -5188c1114,-1791 3306,-5109 3989,-6969 -782,560 -8453,12570 -8659,13498z"/>
  <path class="fil0" d="M6832 197396c-1783,104 -3796,1845 -5513,2647 -358,167 -816,374 -1319,601l0 774c2907,-1166 6123,-2835 6832,-4022z"/>
  <path class="fil0" d="M5513 70803c-619,-1617 -3119,-4527 -5513,-6636l0 916c364,305 734,625 1125,965 1387,1208 3398,4057 4388,4755z"/>
  <path class="fil0" d="M1302 115463c744,-690 778,-1756 1147,-3264 912,-3730 1240,-8883 1060,-12686 -340,1611 -442,5789 -785,8041 -320,2107 -1527,6274 -1422,7909z"/>
  <path class="fil0" d="M25201 160763c1364,-967 7840,-13985 7978,-15872l-7978 15872z"/>
  <path class="fil0" d="M39027 51832c-729,-2312 -2685,-3244 -3631,-5105l-5314 -4879c199,524 8431,9755 8945,9984z"/>
  <path class="fil0" d="M0 59552c1302,898 3411,2443 4222,2587 -561,-1281 -1603,-1449 -2600,-2451 -1376,-141 -785,-369 -1622,-1017l0 881z"/>
  <path class="fil0" d="M20215 67360l3876 6724 -402 -1911c-639,-433 -3233,-5457 -4158,-6806 -1444,-2105 -2993,-4013 -4603,-5828l5287 7821z"/>
  <path class="fil0" d="M5966 188889c1483,-75 413,350 1665,-580 1471,-1094 7118,-5640 7544,-7216 -2365,2509 -8208,6536 -9209,7796z"/>
  <path class="fil0" d="M1777 177108c-534,-568 166,-348 -1067,-548 -190,46 -432,119 -710,212l0 840c69,-36 137,-71 204,-106l-204 158 0 572c723,-136 1272,-471 1777,-1128z"/>
  <path class="fil0" d="M29917 160828c767,-402 327,1 850,-658 451,-568 4837,-9538 4250,-9983 -260,2664 -5237,8219 -5100,10641z"/>
  <path class="fil0" d="M0 73043c1205,1018 2180,2848 3339,3422 -248,-846 -1677,-2596 -3339,-4307l0 885z"/>
  <path class="fil0" d="M45453 75480c141,-2098 -1598,-9400 -2853,-10640 -41,1305 932,3750 1328,5174 243,873 480,1743 691,2622 264,1104 321,2151 834,2844z"/>
  <path class="fil0" d="M22635 48766c-814,-1718 -5895,-5439 -7819,-6087 571,826 2919,2399 3892,3173 1168,928 2670,2562 3927,2914z"/>
  <path class="fil0" d="M1853 157749c1592,-1766 6043,-6441 6298,-8648 -827,345 -203,-367 -1078,958l-5220 7690z"/>
  <path class="fil0" d="M28119 91482c169,-1433 -2004,-9458 -3380,-10739 260,1805 1214,3617 1761,5365 263,842 494,1690 698,2543 317,1332 284,2125 921,2831z"/>
  <path class="fil0" d="M2462 186087c-379,66 -1332,491 -2462,1059l0 685c151,-85 306,-168 470,-250 278,-140 883,-379 1108,-515 800,-482 553,-116 884,-979z"/>
  <path class="fil0" d="M6847 72729c611,1940 1933,3413 2741,5174 430,936 837,1761 1276,2671l901 2071c652,1219 125,359 718,933 -492,-2137 -4218,-9665 -5636,-10849z"/>
  <path class="fil0" d="M8065 135216l560 522c1383,-1437 1005,-2805 2134,-3946l-796 -191 172 -1001c-1087,1057 -1498,3094 -2070,4616z"/>
  <path class="fil0" d="M4199 82393c-198,-1141 -2284,-3857 -4199,-5856l0 654c210,267 423,555 732,943 605,758 3104,3962 3467,4259z"/>
  <path class="fil0" d="M2018 853l-390 -342c-22,-11 -641,-280 -707,-303l-921 -208 0 532c1009,201 1774,325 2018,321z"/>
  <path class="fil0" d="M37741 144551c903,-1389 3110,-5954 2944,-7784 -616,406 -318,-31 -732,772 -6,12 -286,862 -330,995l-1882 6017z"/>
  <path class="fil0" d="M40398 67507c60,-1817 -2152,-6238 -3321,-7633 276,1051 1024,2582 1462,3724 727,1896 895,3222 1859,3909z"/>
  <path class="fil0" d="M4949 84139l1495 3041c573,-1646 781,-88 514,-1995 -115,-819 -515,-1188 -964,-1601l-901 -377 -144 932z"/>
  <path class="fil0" d="M25183 168706c970,-653 4622,-6690 4734,-7878 -847,455 -4606,7367 -4734,7878z"/>
  <path class="fil0" d="M8946 175539c1482,-920 3753,-3222 4647,-4746 -1650,-15 -606,-693 -1671,970 -346,541 -571,818 -999,1263 -753,784 -1560,1499 -1977,2513z"/>
  <path class="fil0" d="M25134 45045c761,1218 2885,3525 4247,3783 -758,-1311 -2620,-3393 -4028,-4037l-219 254z"/>
  <path class="fil0" d="M8151 149101c704,-392 580,-456 1124,-1460 323,-596 596,-1140 899,-1743 611,-1213 1244,-2494 1546,-3781 -770,720 -3473,5880 -3569,6984z"/>
  <path class="fil0" d="M15209 139428c848,-1191 2607,-6377 2564,-8019l-374 53 -2190 7966z"/>
  <path class="fil0" d="M25134 45045l219 -254c-1135,-1172 -3829,-3757 -5311,-4030 364,872 -23,388 1113,1223 471,347 836,658 1283,995 897,676 1861,1310 2696,2066z"/>
  <path class="fil0" d="M16799 94100c-20,-1312 -2070,-6194 -2900,-6998 163,973 1992,6224 2900,6998z"/>
  <path class="fil0" d="M50270 50816c-455,-1532 -3066,-5371 -4158,-5998 237,966 3408,5527 4158,5998z"/>
  <path class="fil0" d="M40298 59468c-111,-1367 -1916,-4645 -2925,-5332 347,1431 1890,4593 2925,5332z"/>
  <path class="fil0" d="M132 196790c1727,-225 6248,-3127 7152,-4539l-7152 4539z"/>
  <path class="fil0" d="M40830 155501c950,-1539 2321,-3624 2464,-5395 -1181,845 -2344,4057 -2464,5395z"/>
  <path class="fil0" d="M42600 64840c-102,-1526 -1258,-4514 -2302,-5372 66,952 1447,4660 2302,5372z"/>
  <path class="fil0" d="M48320 56640c-138,-1085 -2551,-4923 -3421,-5569 320,1245 2560,5018 3421,5569z"/>
  <path class="fil0" d="M51057 62014c-291,-979 -723,-1883 -1131,-2819 -205,-469 -365,-928 -582,-1373 -742,-1524 -201,-668 -1024,-1182 214,1451 592,1596 1249,2862 244,471 411,907 613,1393 590,1426 -51,730 875,1119z"/>
  <path class="fil0" d="M15186 167795l111 803c1057,-753 2565,-2936 2766,-4184l-2877 3381z"/>
  <path class="fil0" d="M27400 39591c-97,-1001 -664,-1103 -1598,-1800 -936,-699 -1261,-1113 -2264,-1275 539,777 2953,2814 3862,3075z"/>
  <path class="fil0" d="M1993 27487l-1495 -810c-168,-55 -333,-110 -498,-165l0 380 1993 595z"/>
  <path class="fil0" d="M1109 140041c-896,720 -225,10 -910,1213 -62,108 -129,227 -199,352l0 1011c547,-957 994,-1938 1109,-2576z"/>
  <path class="fil0" d="M33179 144891c633,-470 163,400 829,-998l1416 -4381c-758,1003 -2091,3996 -2245,5379z"/>
  <path class="fil0" d="M0 166966l137 -126c627,-581 881,-727 1290,-1416 -656,242 -852,406 -1427,754l0 788z"/>
  <path class="fil0" d="M4864 184525c1050,-203 3489,-2268 3886,-3053 -1029,428 -3358,2095 -3886,3053z"/>
  <path class="fil0" d="M0 120385c711,-1222 1391,-3620 1302,-4922 -44,58 -115,73 -130,176 0,3 -790,2155 -1172,3754l0 992z"/>
  <path class="fil0" d="M32567 38163c-877,-1149 -2308,-2489 -3633,-2824 555,859 2790,2655 3633,2824z"/>
  <path class="fil0" d="M1702 77215c-446,-864 -1039,-1620 -1702,-2307l0 516c610,741 983,1429 1702,1791z"/>
  <path class="fil0" d="M4199 82393c291,1475 292,617 750,1746l144 -932 901 377c-546,-1133 -967,-2030 -1795,-2781l775 2000 -775 -410z"/>
  <path class="fil0" d="M36228 38346l-2957 -2799c-92,1229 32,911 1128,1725 1001,745 671,898 1829,1074z"/>
  <path class="fil0" d="M17773 131409l1657 -6386c-752,964 -1745,4965 -1657,6386z"/>
  <path class="fil0" d="M21531 173641c905,-235 500,36 1257,-1018 542,-754 565,-753 912,-1621l-804 120c-317,1402 -707,1326 -1365,2519z"/>
  <path class="fil0" d="M2485 58135c1503,428 1172,1069 2777,1645 -415,-885 -1803,-1957 -2949,-2283 229,393 119,407 172,638z"/>
  <path class="fil0" d="M30082 41848c-65,-959 -1863,-2013 -2682,-2257 499,873 1767,1788 2682,2257z"/>
  <path class="fil0" d="M38689 36135c-403,-1006 -1649,-1986 -2570,-2393 251,665 -144,341 1049,1325 680,561 825,773 1521,1068z"/>
  <path class="fil0" d="M132 196790c-44,4 -88,9 -132,15l0 129c47,-48 91,-95 132,-144z"/>
  <path class="fil0" d="M41517 46702l-2757 -3014c260,1270 173,491 1022,1631 955,1282 228,1169 1735,1383z"/>
  <path class="fil0" d="M6832 197396c1062,-112 2380,-1077 2954,-1882 -1043,247 -2356,1066 -2954,1882z"/>
  <path class="fil0" d="M42572 40562c-253,-1062 -1126,-1982 -1985,-2463 325,1008 1116,2012 1985,2463z"/>
  <path class="fil0" d="M22635 48766c254,948 1453,1999 2269,2423 -363,-924 -1351,-1971 -2269,-2423z"/>
  <path class="fil0" d="M1051 134167c-397,260 -765,709 -1051,1231l0 1037c488,-694 919,-1547 1051,-2268z"/>
  <path class="fil0" d="M26248 179046c658,-331 1607,-1668 1849,-2571 -779,401 -1663,1563 -1849,2571z"/>
  <path class="fil0" d="M5013 54573c-223,-1067 -1386,-1247 -2404,-1294 1533,794 878,1192 2404,1294z"/>
  <path class="fil0" d="M11923 158504c969,-596 198,216 959,-1130 545,-963 507,-703 670,-1670 -744,696 -1351,1726 -1629,2800z"/>
  <polygon class="fil0" points="6711,137960 7552,137700 7398,138811 8436,136718 7469,136851 "/>
  <path class="fil0" d="M40622 54102c-182,-918 -884,-1955 -1595,-2270 177,994 904,1894 1595,2270z"/>
  <polygon class="fil0" points="7469,136851 8436,136718 8625,135738 8065,135216 "/>
  <path class="fil0" d="M2462 186087c844,-115 2000,-922 2402,-1562 -949,185 -1904,794 -2402,1562z"/>
  <path class="fil0" d="M1051 134167c531,-498 373,-203 805,-1188 389,-884 346,-842 488,-1710 -604,752 -1139,1806 -1293,2898z"/>
  <path class="fil0" d="M25201 160763c-807,616 -1356,1828 -1617,2806 667,-632 1399,-1766 1617,-2806z"/>
  <path class="fil0" d="M2298 153118c871,-336 1741,-1634 1898,-2695l-1898 2695z"/>
  <path class="fil0" d="M44643 43365c-182,-1270 -723,-1999 -1785,-2645l1785 2645z"/>
  <path class="fil0" d="M4298 89469c-106,-1125 -326,-1929 -989,-2708 117,1083 405,1943 989,2708z"/>
  <path class="fil0" d="M1383 149815l-1383 2065 0 419c655,-744 1283,-1694 1383,-2484z"/>
  <path class="fil0" d="M39650 48522c-282,-1147 -1336,-2307 -2216,-2775l2216 2775z"/>
  <path class="fil0" d="M9786 195514c820,-241 1409,-616 1756,-1299 -951,143 -1349,536 -1756,1299z"/>
  <path class="fil0" d="M13899 87102c-159,-1124 -299,-1568 -971,-2343 124,1030 360,1681 971,2343z"/>
  <path class="fil0" d="M6277 66889l-483 110 1613 1469c-434,-939 -374,-1270 -1130,-1579z"/>
  <path class="fil0" d="M46112 44818c-252,-980 -96,-849 -982,-1400 216,1032 106,955 982,1400z"/>
  <path class="fil0" d="M4222 62139c314,1013 -430,172 904,1105 464,324 941,641 1362,834l-2266 -1939z"/>
  <path class="fil0" d="M23700 171002l1483 -2296c-722,453 -1412,1259 -1483,2296z"/>
  <path class="fil0" d="M2596 85657c-73,-1091 -513,-1879 -1243,-2646l1243 2646z"/>
  <path class="fil0" d="M13677 170630l1349 -1698c-932,388 -1022,624 -1349,1698z"/>
  <path class="fil0" d="M4253 77675c-313,-1030 -186,-854 -914,-1210 280,840 217,835 914,1210z"/>
  <path class="fil0" d="M10647 160413c846,-637 1074,-839 1276,-1909l-1276 1909z"/>
  <path class="fil0" d="M16780 111731l-146 -162c-768,1010 -480,537 -194,1361l340 -1199z"/>
  <path class="fil0" d="M1702 77215l908 1466c-181,-1003 19,-1002 -908,-1466z"/>
  <path class="fil0" d="M8457 191461l1057 -352c-668,-360 -365,-870 -1057,352z"/>
  <path class="fil0" d="M8457 191461l-1047 356c783,407 483,654 1047,-356z"/>
  <path class="fil0" d="M3585 79802l-381 -973c-252,655 -283,580 381,973z"/>
  <path class="fil0" d="M6847 72729l-642 -966c153,902 -68,763 642,966z"/>
  <polygon class="fil0" points="37442,39608 36880,38984 36866,39674 "/>
  <path class="fil0" d="M4199 80803c-176,-1183 132,-487 -614,-1001l614 1001z"/>
  <path class="fil0" d="M5830 55116c-373,-677 286,-429 -817,-543l817 543z"/>
  <path class="fil0" d="M6205 71763l-692 -960c353,1127 -11,511 692,960z"/>
  <path class="fil0" d="M39626 37184l568 683c-283,-1099 177,-390 -568,-683z"/>
  <polygon class="fil0" points="39626,37184 39107,36395 "/>
  <polygon class="fil0" points="9404,171094 7877,172441 "/>
  <polygon class="fil0" points="9404,171094 10059,170456 "/>
 </g>
</svg>
