<?xml version="1.0" encoding="UTF-8"?>
<!DOCTYPE svg PUBLIC "-//W3C//DTD SVG 1.1//EN" "http://www.w3.org/Graphics/SVG/1.1/DTD/svg11.dtd">
<!-- Creator: CorelDRAW X7 -->
<svg xmlns="http://www.w3.org/2000/svg" xml:space="preserve" width="109.001mm" height="70.1878mm" version="1.1" style="shape-rendering:geometricPrecision; text-rendering:geometricPrecision; image-rendering:optimizeQuality; fill-rule:evenodd; clip-rule:evenodd"
viewBox="0 0 2871 1849"
 xmlns:xlink="http://www.w3.org/1999/xlink">
 <defs>
  <style type="text/css">
   <![CDATA[
    .str1 {stroke:#F5874F;stroke-width:5.26799}
    .str4 {stroke:#373435;stroke-width:2.00711}
    .str0 {stroke:#F5874F;stroke-width:2.00711}
    .str2 {stroke:#F58634;stroke-width:2.00711}
    .str3 {stroke:#202020;stroke-width:2.00711}
    .fil2 {fill:none}
    .fil1 {fill:#F5874F}
    .fil0 {fill:#F58634}
    .fil3 {fill:#202020}
    .fil5 {fill:#252524}
    .fil4 {fill:#292926}
    .fil15 {fill:#6E6E6C}
    .fil8 {fill:#777776}
    .fil14 {fill:#7B7C78}
    .fil12 {fill:#989896}
    .fil9 {fill:#9F9B97}
    .fil13 {fill:#A5A5A3}
    .fil16 {fill:#A9A9A6}
    .fil10 {fill:#B4B2AC}
    .fil11 {fill:#C9C9C7}
    .fil7 {fill:#D6C9B1}
    .fil6 {fill:#E5DBD4}
   ]]>
  </style>
     <clipPath id="id0">
      <path d="M123 759l2529 0 0 312 -2529 1 0 -313z"/>
     </clipPath>
 </defs>
 <g id="Capa_x0020_1">
  <metadata id="CorelCorpID_0Corel-Layer"/>
  <polygon class="fil0" points="2834,1288 2871,1341 "/>
  <g id="_1907703450656">
   <g>
    <g style="clip-path:url(#id0)">
     <image x="123" y="759" width="2529" height="313" xlink:href="logo_Images\logo_ImgID1.png"/>
    </g>
   </g>
   <path class="fil1 str0" d="M151 949l36 0c12,37 40,62 80,62 11,0 20,-2 27,-7 7,-5 10,-11 10,-19 0,-12 -15,-23 -44,-31 -10,-3 -18,-5 -23,-6 -18,-6 -32,-10 -42,-14 -10,-4 -17,-8 -21,-11 -19,-14 -30,-32 -30,-57 0,-25 10,-46 29,-61 18,-16 43,-24 74,-24 30,0 57,6 83,19 3,3 8,7 12,9 1,2 3,5 6,6 0,0 3,2 3,2 1,4 4,7 6,10 1,2 3,4 4,6 1,2 2,5 4,7 0,0 1,1 1,2 1,3 3,7 5,10 0,4 1,7 3,10l0 13 -43 0c-8,-37 -32,-53 -69,-53 -12,0 -21,3 -28,8 -8,5 -11,11 -11,19 0,11 14,19 42,25 7,2 12,3 16,4 39,9 66,20 82,33 16,14 24,32 24,55 0,25 -10,46 -29,61 -20,15 -46,23 -79,23 -21,0 -41,-4 -60,-11 -2,-1 -4,-2 -6,-2 -2,-1 -6,-3 -8,-3 -2,-1 -4,-2 -6,-3 0,0 -1,0 -1,-1 -2,-1 -5,-3 -7,-4 -1,-1 -2,-2 -3,-2 -1,-1 -2,-3 -3,-4 -2,-2 -5,-5 -7,-6 -1,-3 -3,-5 -4,-7 -2,-3 -4,-5 -7,-7 -1,-3 -2,-6 -4,-9 -2,-3 -3,-6 -5,-9 -1,-2 -2,-4 -4,-5 0,-2 -1,-3 -2,-5 0,-2 -1,-3 -1,-5l0 -18zm517 -160l0 37 -78 0 0 1c-7,-2 -18,-2 -32,-2l-7 0 -33 0 0 69c8,0 16,1 24,-2l0 37c-8,-2 -17,-2 -24,-2l0 79 45 0c15,0 26,-1 33,-2l74 0 0 38 -236 0 0 -40 -1 0c3,-4 3,-13 3,-18l0 -138c0,-7 -1,-12 -2,-15l0 -42 234 0zm-114 150c0,-1 0,-2 -1,-3l3 0 -2 3zm294 4l0 -36 109 0 0 138 -45 0 -8 -16c-23,13 -48,21 -75,21 -39,0 -70,-12 -93,-36 -22,-24 -34,-57 -34,-98 0,-41 13,-73 37,-98 24,-25 56,-37 96,-37 24,0 47,4 68,18 4,4 9,7 14,9 2,2 5,5 7,7 2,3 5,6 8,8 1,1 2,2 3,3 1,3 3,5 5,7 0,1 1,2 1,3 2,4 5,10 8,13l0 40 -44 0c-4,-24 -11,-42 -19,-53 -9,-11 -21,-16 -36,-16 -18,0 -30,7 -38,22 -7,15 -11,39 -11,73 0,34 4,58 11,73 8,16 20,23 37,23 11,0 19,-2 23,-5 4,-3 6,-11 6,-22l0 -19c0,-10 -2,-16 -4,-18 -5,-5 -19,-4 -26,-4zm273 15c0,19 3,33 9,41 6,8 16,12 31,12 35,0 48,-16 48,-50l0 -109 0 0 0 -63 52 0 0 49c-1,2 -1,4 -1,7l0 122c0,67 -59,83 -115,83 -34,0 -61,-7 -79,-21 -19,-14 -29,-33 -29,-59l0 -124c0,-3 0,-6 0,-8l0 0 0 -49 84 0 0 52c0,2 0,3 0,5l0 112zm299 -59l17 0c17,0 30,-3 37,-9 7,-6 11,-15 11,-29 0,-13 -4,-22 -11,-27 -7,-5 -19,-8 -36,-8l-18 0 0 73zm48 -110c36,0 62,5 79,17 16,11 24,29 24,53 0,25 -8,42 -24,54 -17,11 -43,17 -79,17l-48 0 0 51 -1 0 0 61 -83 0 0 -58 0 0 0 -138c0,-2 0,-4 0,-6l0 0 0 -51 132 0zm237 43c-2,5 -1,11 -1,14l0 159 13 0 0 0 107 0 0 37 -206 0 0 -45c1,-3 1,-8 1,-13l0 -138c0,-2 0,-4 0,-5l0 -52 86 0 0 43zm274 92l-23 -76 -21 76 44 0zm16 48l-4 -12 -68 0 -31 82 -64 0 0 -36c6,0 11,1 16,-1l0 0 0 0c12,-2 18,-14 21,-25l67 -191 91 0 79 253 -81 0 -26 -70zm132 -23l36 0c12,37 40,62 80,62 11,0 20,-2 27,-7 7,-5 10,-11 10,-19 0,-12 -15,-23 -45,-31 -9,-3 -17,-5 -22,-6 -18,-6 -32,-10 -42,-14 -10,-4 -17,-8 -21,-11 -19,-14 -30,-32 -30,-57 0,-25 10,-46 29,-61 18,-16 43,-24 74,-24 29,0 55,5 81,18 1,0 2,1 4,1 2,3 5,4 8,6 2,1 4,2 6,3 2,1 3,2 5,3 1,3 3,5 6,7 1,1 2,3 3,5 1,3 2,7 5,9 0,1 1,2 2,3 0,2 1,5 3,7 0,1 1,2 2,3 0,2 1,3 2,5l0 24 -43 0c-8,-37 -32,-53 -69,-53 -12,0 -21,3 -28,8 -8,5 -11,11 -11,19 0,11 14,19 42,25 7,2 12,3 16,4 39,9 66,20 82,33 16,14 24,32 24,55 0,25 -10,46 -29,61 -20,15 -46,23 -79,23 -28,0 -54,-7 -80,-19 -3,-3 -9,-7 -13,-8 0,-1 -1,-1 -1,-1 -2,-3 -4,-4 -7,-6 -2,-1 -3,-3 -5,-5 -2,-3 -5,-6 -8,-9 -1,-1 -2,-2 -2,-2 -1,-2 -2,-3 -3,-4 -1,-1 -2,-2 -3,-3 0,-1 -1,-3 -1,-4 -1,-3 -3,-5 -5,-7l0 -33zm253 -125l0 -35 266 0 0 36 -91 0 0 3 0 0 0 156c0,3 0,5 0,7l0 51 -83 0 0 -53 0 0 0 -81 0 0 0 -85 -85 0 0 1 -7 0z"/>
   <polygon class="fil1 str1" points="518,894 639,894 639,927 518,927 "/>
   <polygon class="fil1 str1" points="668,826 434,826 434,789 668,789 "/>
   <polygon class="fil1 str1" points="434,789 517,789 517,1042 434,1042 "/>
   <polygon class="fil1 str1" points="670,1042 474,1042 474,1004 670,1004 "/>
   <path class="fil2 str1" d="M309 1045c0,0 -146,28 -160,-96"/>
   <path class="fil2 str1" d="M235 784c0,0 116,-16 139,81"/>
   <path class="fil2 str1" d="M837 783c0,0 87,-3 113,74"/>
   <polygon class="fil1 str1" points="905,889 949,889 949,856 905,856 "/>
   <polygon class="fil1 str1" points="339,873 374,873 374,867 339,867 "/>
   <path class="fil2 str1" d="M2246 784c0,0 90,7 104,69"/>
   <polygon class="fil1 str1" points="2314,873 2350,873 2350,851 2314,851 "/>
   <path class="fil2 str1" d="M2127 981c4,7 36,59 100,64"/>
   <polygon class="fil1 str1" points="1761,1040 1854,1040 1854,1011 1761,1011 "/>
   <polygon class="fil1 str1" points="1751,1008 1872,1008 1872,1024 1751,1024 "/>
  </g>
  <path class="fil3" d="M1353 1574c-12,-42 54,-56 62,-16 7,41 -52,48 -62,16zm140 -8c-7,-36 44,-46 53,-16 12,40 -48,46 -53,16zm-272 0c-8,-39 44,-44 53,-16 12,39 -47,46 -53,16zm411 -17c-8,-33 38,-40 46,-16 9,31 -39,42 -46,16zm-543 -4c-5,-32 41,-36 46,-8 7,36 -43,33 -46,8zm-126 -45c26,-17 44,7 32,24 -10,13 -45,10 -32,-24zm841 26l-23 6c-21,-23 -12,-39 17,-37 19,18 9,15 6,31zm129 -65c4,16 5,9 -2,21 -13,7 -7,6 -21,1 -13,-19 4,-28 23,-22zm-1100 0c22,-7 34,-2 27,21 -14,7 -9,6 -25,1l-2 -22zm1226 -47l0 13 -18 4c-8,-20 3,-29 18,-17zm-1352 0c12,-7 26,-6 21,12 -15,8 -17,5 -21,-12zm-119 -129c-80,25 -78,120 -2,163 474,269 1115,272 1588,1 79,-45 79,-144 -1,-166 -54,-14 -151,52 -204,76 -368,162 -811,160 -1179,-1 -54,-24 -147,-91 -202,-73z"/>
  <path class="fil0 str2" d="M1831 325c-7,-2 -5,3 -9,-4 -10,-14 0,-10 0,-10 15,-4 13,2 9,14zm-893 -1c-13,-32 38,-6 0,0zm800 8c1,-21 7,-46 17,-63l25 7c1,11 -3,38 -6,47 -7,18 -22,13 -36,9zm-704 -70l19 -6c15,15 20,42 15,61l-19 8c-17,-15 -22,-44 -15,-63zm-53 10c15,11 31,69 -2,64 4,-15 7,-11 3,-30 -4,-16 -8,-22 -1,-34zm705 35c17,-25 0,-43 21,-50 7,14 -2,51 -12,62 -25,2 -28,-2 -25,-28 2,-12 5,-33 16,-38 10,17 -10,35 0,54zm-492 -7c-20,-5 -8,-5 -21,-22 -1,17 3,13 -5,25 -14,-10 -16,-51 -9,-66 19,6 10,6 20,24 0,-2 0,-13 0,-13 3,-15 -2,-3 5,-14 14,12 16,51 10,66zm161 -77c15,8 1,7 12,27 11,-21 -3,-20 13,-27 7,13 7,54 0,66 -16,-6 -2,-6 -12,-27 -12,21 3,20 -13,27 -9,-13 -9,-53 0,-66zm-247 22c11,14 19,53 9,66 -12,-8 -23,-57 -9,-66zm512 49c15,8 10,0 13,11 -9,8 -13,4 -27,1l5 -49c7,-24 0,-10 12,-15 6,18 -3,36 -3,52zm-69 -9c21,-6 -3,-5 20,-8 0,22 -2,24 -25,22 -11,-18 -9,-47 5,-63l20 -1 4 23c-22,-1 1,-2 -19,-10l-5 37zm-113 -42c10,18 4,1 11,18 -16,9 -7,-1 -13,12 15,12 7,-2 18,13 -12,8 -13,6 -29,3 -2,-25 -2,-39 2,-63 16,-2 18,-5 29,5l-18 12zm-138 49c-7,-11 -7,-18 -8,-32 -2,-36 -5,-11 -9,-34l29 -1c-5,25 -8,0 -5,32 2,32 -3,30 -7,35zm-40 -117c-234,18 -457,79 -663,190 -32,18 -61,31 -70,70 -9,37 5,77 39,96 60,34 144,-33 205,-60 224,-100 474,-144 719,-125 153,12 314,51 456,110 45,18 163,87 199,86 83,-2 117,-109 37,-161 -243,-157 -638,-228 -922,-206z"/>
  <path class="fil4" d="M1661 150c13,-9 60,-39 75,-36 32,7 26,59 -10,43 8,-6 12,-1 14,-12 4,-16 -30,-34 -25,16l-54 -11zm-661 6c-11,-28 3,-50 33,-41 16,5 14,13 41,27l15 9 -55 9c7,-14 5,-38 -20,-28 -7,19 3,18 11,24 -13,8 -11,6 -25,0zm372 -61l4 -7 6 10c3,14 8,14 16,28l-44 -2c9,-15 12,-8 18,-29zm79 -41c51,27 10,90 -38,68 -44,-20 -36,-78 2,-103 77,-50 132,75 182,121l-135 -12c62,-74 -36,-104 -37,-71 -1,26 22,-2 26,-3zm-154 4l9 -7 2 9 15 7 5 -10c-30,-47 -92,39 -37,70l-136 13c59,-54 102,-169 183,-121 37,22 45,81 1,103 -50,24 -87,-50 -42,-64zm-209 76l13 7 -12 -3c-27,-11 -46,-37 -72,-33 -51,8 -22,52 -19,64 -55,20 -120,33 -178,54 -57,20 -107,43 -162,67 -51,24 -100,53 -148,82 -13,8 -62,37 -67,48 -22,48 62,49 33,7l-15 22c-31,-31 34,-58 60,-75 31,-19 68,-40 101,-56 412,-204 847,-244 1285,-95 108,36 221,89 319,149 23,14 92,42 70,74l-25 -18c-19,35 53,42 39,-4 -6,-17 -49,-40 -65,-50 -108,-70 -388,-198 -492,-202l-6 -4 7 -6c24,-23 7,-55 -21,-57 -26,-2 -42,23 -71,33l-10 0 11 -4c54,-91 -87,-89 -53,-31 15,0 23,0 12,-15l-9 -8 6 -4c84,-60 46,170 -65,3 -19,-28 -44,-63 -75,-74 -38,-15 -86,6 -98,44l-6 10 -3 -7c-12,-40 -55,-60 -95,-48 -31,9 -60,47 -77,72 -107,159 -157,-36 -69,-3 9,24 -16,3 -2,31 39,-6 6,-55 -30,-41 -34,13 -22,48 -11,71z"/>
  <path class="fil4" d="M1387 1725l-7 9 -3 -7 -18 -31 44 2c-9,13 -12,11 -16,27zm69 44c-8,-4 -23,-31 -27,-1 25,29 90,-14 39,-73l133 -13c-5,7 -27,26 -38,40 -30,42 -77,124 -143,81 -38,-25 -46,-83 -2,-103 48,-22 90,41 38,69zm-142 -7l-3 9 -9 -7c-46,-14 -6,-91 45,-62 42,24 30,81 -7,103 -76,45 -130,-78 -180,-123l135 13c-54,55 14,107 38,70 -6,-14 -10,-14 -19,-3zm406 -101c-2,18 -6,36 21,30 11,-17 -1,-20 -10,-26 38,-16 43,40 6,44 -12,1 -60,-29 -71,-37l54 -11zm-626 11c-12,10 0,1 -12,7l-23 15c-65,55 -80,-56 -29,-28 -8,6 -18,5 -11,24 26,11 28,-13 20,-29l55 11zm0 14l13 -4 -12 7c-17,22 -22,58 9,70 38,15 69,-35 30,-41 -6,13 19,45 -23,35 -22,-6 -27,-35 -15,-52 53,-77 124,91 176,114 42,18 92,-1 105,-44l3 -7 6 9c11,33 46,52 80,49 62,-6 87,-90 134,-127 34,-27 77,-6 70,42 -13,16 -28,26 -46,8l-5 -3 8 -7c11,-15 3,-16 -12,-15 -35,57 110,58 53,-30l-11 -8 10 2c29,10 46,35 71,33 28,-2 45,-33 21,-57l-7 -7 6 -3c114,-3 534,-200 556,-249 21,-47 -58,-44 -38,-7l23 -20c24,34 -43,60 -66,75 -402,252 -939,308 -1386,150 -74,-27 -147,-57 -217,-93 -34,-18 -69,-37 -101,-57 -23,-14 -95,-44 -65,-75l17 21c27,-40 -50,-42 -34,3 15,45 311,177 375,201 60,21 124,34 181,54 -3,13 -32,51 16,63 33,8 42,-24 75,-30z"/>
  <path class="fil5" d="M867 1289l-16 -6c-32,-10 -143,-69 -166,-89 64,-3 356,-14 392,17 53,45 -20,127 -65,78 -21,-23 -9,-60 21,-62 33,-2 49,48 3,50 -5,-14 12,-15 -6,-23 -12,-6 -17,6 -11,19 10,21 43,14 50,-7 19,-53 -66,-70 -74,-9l-2 11 -8 -8c-21,-22 -54,-70 -89,-44 -37,26 5,90 41,46 3,-20 -4,-39 -26,-27 -2,35 11,3 19,23 -27,27 -52,-7 -32,-35 58,-22 82,62 123,83 61,31 113,-61 63,-101 -35,-28 -152,-19 -200,-19 -70,0 -154,-4 -222,1 7,13 1,5 33,25l115 62c55,26 111,50 169,70 272,92 532,96 805,0 54,-18 297,-119 319,-156 -54,-9 -180,-2 -241,-2 -57,0 -180,-18 -198,47 -9,32 6,66 39,75 39,12 57,-12 79,-39 116,-139 104,52 54,-11 12,-14 15,0 21,-18 -20,-24 -37,3 -25,29 47,31 72,-39 30,-56 -40,-17 -64,33 -86,50 -13,-15 -5,-31 -30,-41 -18,-8 -38,-2 -48,15 -30,51 67,68 47,17 -27,-4 -10,7 -19,22 -39,-2 -28,-46 0,-49 33,-4 48,33 29,58 -39,56 -123,-24 -69,-73 36,-32 332,-20 395,-18 -67,29 -103,70 -256,127 -222,83 -436,109 -669,62 -48,-9 -260,-67 -289,-94z"/>
  <path class="fil5" d="M980 562l8 -8 2 11c7,50 66,49 75,13 16,-66 -87,-36 -45,-8 25,-6 6,-11 11,-25 62,3 9,89 -32,30 -13,-61 59,-74 84,-30 30,55 -21,80 -68,83 -62,4 -278,8 -331,-1 33,-40 247,-126 306,-145 272,-90 509,-88 780,1 55,19 107,41 160,65 26,11 52,25 77,39 15,8 60,38 69,41 -62,3 -359,14 -395,-18 -53,-48 29,-128 70,-73 17,24 4,59 -26,58 -33,0 -42,-47 -4,-49 9,15 -8,26 19,22 18,-49 -77,-35 -47,17 10,18 30,23 48,15 26,-10 17,-26 30,-40 14,10 82,98 105,30 9,-28 -15,-54 -42,-42 -27,13 -7,63 17,34 -5,-17 -8,-5 -21,-19 22,-26 46,2 36,30 -43,43 -89,-52 -120,-73 -61,-40 -121,49 -70,96 33,31 154,20 202,20 58,0 168,6 220,-2 -22,-36 -263,-136 -316,-155 -269,-95 -535,-95 -805,-2 -88,31 -166,66 -247,110 -13,7 -25,15 -38,22 -27,16 -28,12 -35,26 75,6 167,1 243,1 56,0 180,18 196,-48 7,-29 -7,-64 -37,-74 -68,-23 -94,89 -146,90 -49,2 -25,-78 12,-40 -9,21 -3,-2 -15,9 0,0 -17,6 1,16 18,11 23,-15 21,-29 -35,-44 -78,20 -41,46 36,25 68,-22 89,-44z"/>
  <path class="fil5" d="M5 1132c68,13 259,3 339,3l2074 0c54,0 313,12 341,-8 -460,0 -919,-1 -1378,0 -147,0 -1341,-12 -1376,5z"/>
  <path class="fil5" d="M0 690c35,14 2492,5 2753,6 -27,-21 -283,-9 -335,-9l-2075 0c-70,0 -290,-9 -343,3z"/>
  <path class="fil5" d="M2660 622l2 18 20 -12c27,46 -94,30 -120,30l-2363 0c-28,0 -57,0 -85,0 -20,1 -61,7 -48,-27l22 8 1 -19c-38,-4 -44,25 -26,40 14,13 232,7 259,7l2291 0c20,0 64,5 78,-11 17,-20 3,-44 -31,-34z"/>
  <path class="fil5" d="M91 1203l3 -19 -22 8c-16,-41 57,-28 128,-28l2193 0c57,0 113,0 170,0 26,0 152,-16 125,29l-19 -11 -4 18c29,9 48,-8 33,-32 -13,-19 -55,-13 -76,-13 -59,1 -119,0 -178,0l-2291 0c-17,0 -70,-3 -83,5 -17,11 -20,49 21,43z"/>
  <path class="fil4" d="M602 1222l0 16c-17,4 -3,4 -14,-3 -11,-18 -9,-38 16,-40 20,0 69,49 127,78 214,109 401,173 650,174 218,1 461,-66 652,-173 27,-15 59,-33 84,-52 13,-11 25,-25 42,-26 23,-1 37,20 15,36l-9 7 -2 -13 -14 0c2,57 82,-17 25,-36 -31,-11 -69,30 -97,48 -198,123 -459,201 -691,201 -227,1 -499,-76 -692,-197 -24,-15 -67,-57 -94,-54 -71,8 10,101 16,39l-14 -5z"/>
  <path class="fil4" d="M582 587c7,-3 -4,-7 15,-3l0 16 11 -16c-16,-12 -30,-3 -40,9 -10,59 47,43 79,17 26,-22 60,-42 90,-58 66,-35 135,-67 206,-91 170,-59 333,-87 513,-76 163,10 321,56 469,122 55,24 142,67 187,106 54,47 92,3 71,-25 -12,-15 -36,-8 -37,1 -1,6 21,-3 32,10 0,18 -14,30 -32,26 -15,-4 -30,-20 -42,-30 -60,-47 -203,-110 -272,-136 -303,-111 -614,-113 -917,3 -65,26 -124,53 -186,86 -25,13 -63,34 -83,52 -29,25 -80,47 -64,-13z"/>
  <path class="fil5" d="M2341 569l3 -15 7 8c17,29 91,85 102,24 5,-26 -19,-51 -44,-36 -26,16 -3,58 18,34 -6,-31 -8,0 -19,-21 26,-24 46,3 32,35 -50,22 -78,-43 -113,-73 -50,-43 -114,18 -88,75 23,49 119,36 166,36 33,0 177,10 194,-6 -1,-31 -16,-8 -23,-4 -12,5 -33,3 -48,3 -67,-1 -244,11 -274,-22 -48,-52 39,-124 74,-70 17,26 1,60 -29,58 -29,-1 -43,-45 0,-50 4,11 -6,24 16,24 28,-36 -63,-52 -49,9 7,35 66,37 75,-9z"/>
  <path class="fil5" d="M2356 1260l-8 8 -2 -15c-9,-43 -64,-45 -74,-12 -18,54 66,58 50,13 -24,-4 -13,12 -17,23 -44,-3 -28,-46 -4,-50 29,-5 48,26 33,55 -30,58 -122,-9 -77,-65 27,-33 132,-23 174,-23 33,0 65,0 98,0 13,0 38,-3 49,1 9,4 25,23 26,-3 -14,-12 -183,-6 -215,-6 -57,0 -166,-9 -150,78 6,29 35,50 64,47 24,-3 49,-33 64,-51 103,-115 100,47 46,0 11,-22 13,9 19,-22 -20,-25 -43,15 -20,33 23,18 50,-6 47,-31 -3,-28 -32,-37 -56,-25 -13,7 -36,33 -47,45z"/>
  <path class="fil5" d="M346 561l-19 20c9,12 9,10 21,8 47,-61 -85,-54 -41,9 35,50 86,-30 101,-37 15,14 5,32 33,41 19,5 40,-3 48,-23 7,-19 -6,-41 -27,-42 -21,-1 -42,27 -14,32l12 -24c36,9 25,47 -3,50 -32,3 -46,-31 -31,-56 33,-56 120,11 78,65 -30,37 -202,24 -271,24 -18,0 -32,4 -49,-2 -11,-4 -22,-16 -26,1 14,17 80,9 105,9 37,0 73,0 110,0 53,0 163,10 148,-76 -6,-30 -31,-52 -62,-48 -31,3 -45,26 -63,48 -98,119 -109,-40 -50,1z"/>
  <path class="fil5" d="M161 1200c23,16 8,-1 31,-6 8,-2 40,0 50,0 73,0 239,-14 269,27 39,53 -50,119 -81,60 -13,-25 2,-58 32,-54 30,4 37,47 2,49 -8,-14 1,-12 -10,-23l-14 4c-4,50 78,26 51,-20 -11,-17 -30,-22 -48,-15 -26,10 -16,26 -30,40 -22,-13 -44,-66 -86,-49 -42,16 -16,88 30,55 13,-27 -6,-51 -25,-28 7,15 10,6 20,19 -28,34 -56,-27 -22,-39 48,-17 83,84 130,90 32,5 60,-16 66,-47 16,-87 -95,-77 -148,-77l-170 0c-25,0 -40,-8 -47,14z"/>
  <path class="fil1 str0" d="M1353 1574c10,32 69,25 62,-16 -8,-40 -74,-26 -62,16z"/>
  <path class="fil1 str0" d="M1221 1566c6,30 65,23 53,-16 -9,-28 -61,-23 -53,16z"/>
  <path class="fil1 str0" d="M1493 1566c5,30 65,24 53,-16 -9,-30 -60,-20 -53,16z"/>
  <path class="fil0 str2" d="M1194 300c6,-15 4,-54 -10,-66 -7,11 -2,-1 -5,14 0,0 0,11 0,13 -10,-18 -1,-18 -20,-24 -7,15 -5,56 9,66 8,-12 4,-8 5,-25 13,17 1,17 21,22z"/>
  <path class="fil0 str2" d="M1758 324c-8,-11 -8,-6 1,-16 6,11 5,4 -1,16zm6 -41c10,14 4,6 -1,12 -4,-9 -6,0 1,-12zm-26 49c14,4 29,9 36,-9 3,-9 7,-36 6,-47l-25 -7c-10,17 -16,42 -17,63z"/>
  <path class="fil0 str2" d="M1380 289c7,-12 7,-53 0,-66 -16,7 -2,6 -13,27 -11,-20 3,-19 -12,-27 -9,13 -9,53 0,66 16,-7 1,-6 13,-27 10,21 -4,21 12,27z"/>
  <path class="fil1 str0" d="M1089 1545c3,25 53,28 46,-8 -5,-28 -51,-24 -46,8z"/>
  <path class="fil1 str0" d="M1632 1549c7,26 55,15 46,-16 -8,-24 -54,-17 -46,16z"/>
  <path class="fil0 str2" d="M1053 311c-8,-14 -11,-24 -8,-41 12,10 13,28 8,41zm-19 -49c-7,19 -2,48 15,63l19 -8c5,-19 0,-46 -15,-61l-19 6z"/>
  <path class="fil0 str2" d="M1686 307c-10,-19 10,-37 0,-54 -11,5 -14,26 -16,38 -3,26 0,30 25,28 10,-11 19,-48 12,-62 -21,7 -4,25 -21,50z"/>
  <path class="fil0 str2" d="M1556 248c20,8 -3,9 19,10l-4 -23 -20 1c-14,16 -16,45 -5,63 23,2 25,0 25,-22 -23,3 1,2 -20,8l5 -37z"/>
  <path class="fil0 str2" d="M1456 231c-11,-10 -13,-7 -29,-5 -4,24 -4,38 -2,63 16,3 17,5 29,-3 -11,-15 -3,-1 -18,-13 6,-13 -3,-3 13,-12 -7,-17 -1,0 -11,-18l18 -12z"/>
  <path class="fil1 str0" d="M963 1500c-13,34 22,37 32,24 12,-17 -6,-41 -32,-24z"/>
  <path class="fil1 str0" d="M1804 1526c3,-16 13,-13 -6,-31 -29,-2 -38,14 -17,37l23 -6z"/>
  <path class="fil0 str2" d="M1300 292c4,-5 9,-3 7,-35 -3,-32 0,-7 5,-32l-29 1c4,23 7,-2 9,34 1,14 1,21 8,32z"/>
  <path class="fil0 str2" d="M1620 294c0,-16 9,-34 3,-52 -12,5 -5,-9 -12,15l-5 49c14,3 18,7 27,-1 -3,-11 2,-3 -13,-11z"/>
  <path class="fil0 str2" d="M1117 311c10,-13 2,-52 -9,-66 -14,9 -3,58 9,66z"/>
  <path class="fil0 str2" d="M979 336c33,5 17,-53 2,-64 -7,12 -3,18 1,34 4,19 1,15 -3,30z"/>
  <path class="fil3 str3" d="M1382 98l-10 -3c-6,21 -9,14 -18,29l44 2c-8,-14 -13,-14 -16,-28z"/>
  <path class="fil1 str0" d="M860 1482c7,-23 -5,-28 -27,-21l2 22c16,5 11,6 25,-1z"/>
  <path class="fil1 str0" d="M1910 1483c14,5 8,6 21,-1 7,-12 6,-5 2,-21 -19,-6 -36,3 -23,22z"/>
  <path class="fil1 str0" d="M2059 1414c-15,-12 -26,-3 -18,17l18 -4 0 -13z"/>
  <path class="fil1 str0" d="M728 1426c5,-18 -9,-19 -21,-12 4,17 6,20 21,12z"/>
  <path class="fil0 str2" d="M1053 311c5,-13 4,-31 -8,-41 -3,17 0,27 8,41z"/>
  <path class="fil6" d="M851 1283l16 6c-13,-27 7,-11 -13,-23l-3 17z"/>
  <path class="fil0 str2" d="M1831 325c4,-12 6,-18 -9,-14 0,0 -10,-4 0,10 4,7 2,2 9,4z"/>
  <path class="fil0 str2" d="M938 324c38,-6 -13,-32 0,0z"/>
  <path class="fil0" d="M1552 1849c10,-17 10,-9 -1,-20 -12,16 -5,10 1,20z"/>
  <path class="fil7" d="M595 723c-1,-12 3,-7 -9,-16 -10,20 1,15 9,16z"/>
  <path class="fil0" d="M2065 16c16,3 12,9 12,-10 -7,3 -7,0 -12,10z"/>
  <path class="fil0 str2" d="M1758 324c6,-12 7,-5 1,-16 -9,10 -9,5 -1,16z"/>
  <path class="fil8" d="M588 1235c11,7 -3,7 14,3l0 -16 -4 13 -10 0z"/>
  <path class="fil8" d="M597 600l0 -16c-19,-4 -8,0 -15,3l11 -1 4 14z"/>
  <polygon class="fil9" points="2356,1260 2346,1253 2348,1268 "/>
  <path class="fil10" d="M2050 1692l2 -15c-10,10 -13,0 -2,15z"/>
  <path class="fil0 str2" d="M1763 295c5,-6 11,2 1,-12 -7,12 -5,3 -1,12z"/>
  <path class="fil11" d="M1861 1706c-3,-15 4,-4 -9,-9 5,12 -3,7 9,9z"/>
  <path class="fil9" d="M2341 569c8,-9 2,-3 10,-7l-7 -8 -3 15z"/>
  <polygon class="fil9" points="985,1260 993,1268 995,1257 "/>
  <polygon class="fil12" points="980,562 990,565 988,554 "/>
  <polygon class="fil3 str3" points="1308,60 1306,51 1297,58 "/>
  <polygon class="fil0" points="1302,1764 1311,1771 1314,1762 "/>
  <path class="fil13" d="M2174 1232c-12,-1 -1,5 -11,-6l2 13 9 -7z"/>
  <polygon class="fil3 str3" points="1382,98 1376,88 1372,95 "/>
  <path class="fil3 str3" d="M1622 88c-4,-8 -1,-2 -3,-12l-6 4 9 8z"/>
  <polygon class="fil14" points="1377,1727 1380,1734 1387,1725 "/>
  <polygon class="fil3 str3" points="1372,52 1375,59 1381,49 "/>
  <polygon class="fil0" points="1386,1773 1380,1764 1377,1771 "/>
  <polygon class="fil14" points="1759,1660 1758,1650 1752,1653 "/>
  <path class="fil15" d="M1624 1745c1,-5 0,-4 3,-10l-8 7 5 3z"/>
  <polygon class="fil3 str3" points="1753,172 1754,162 1747,168 "/>
  <polygon class="fil3 str3" points="1088,134 1089,138 1101,141 "/>
  <polygon class="fil16" points="1668,1690 1667,1684 1657,1682 "/>
  <polygon class="fil3 str3" points="1662,138 1663,134 1652,138 "/>
  <path class="fil11" d="M857 1212c8,9 1,7 8,1l-8 -1z"/>
  <polygon class="fil9" points="1095,1689 1107,1682 1094,1686 "/>
  <path class="fil3 str4" d="M1349 243c-12,43 54,58 62,16 7,-41 -52,-47 -62,-16zm140 9c-7,37 44,46 53,16 12,-41 -48,-46 -53,-16zm-272 0c-8,39 44,44 53,16 12,-40 -47,-47 -53,-16zm411 17c-8,34 38,41 46,16 9,-32 -39,-42 -46,-16zm-543 4c-5,32 41,36 46,8 7,-36 -43,-33 -46,-8zm-126 46c26,17 44,-7 32,-24 -10,-13 -45,-11 -32,24zm841 -26l-23 -6c-21,23 -12,39 17,37 19,-18 9,-15 6,-31zm129 66c4,-17 5,-9 -2,-22 -13,-7 -7,-6 -21,-1 -13,20 4,28 23,23zm-1100 -1c22,7 34,3 27,-21 -14,-7 -9,-6 -25,-1l-2 22zm1226 48l0 -13 -18 -4c-8,20 3,29 18,17zm-1352 0c12,8 26,6 21,-13 -15,-7 -17,-4 -21,13zm-119 131c-80,-25 -78,-122 -2,-165 474,-274 1115,-276 1588,-2 79,46 79,146 -1,169 -54,15 -151,-53 -204,-77 -368,-164 -811,-163 -1179,1 -54,24 -147,92 -202,74z"/>
 </g>
</svg>
