<?xml version="1.0" encoding="UTF-8"?>
<!DOCTYPE svg PUBLIC "-//W3C//DTD SVG 1.1//EN" "http://www.w3.org/Graphics/SVG/1.1/DTD/svg11.dtd">
<!-- Creator: CorelDRAW X7 -->
<svg xmlns="http://www.w3.org/2000/svg" xml:space="preserve" width="137.559mm" height="74.591mm" version="1.1" style="shape-rendering:geometricPrecision; text-rendering:geometricPrecision; image-rendering:optimizeQuality; fill-rule:evenodd; clip-rule:evenodd"
viewBox="0 0 13545 7345"
 xmlns:xlink="http://www.w3.org/1999/xlink">
 <defs>
  <style type="text/css">
   <![CDATA[
    .fil0 {fill:#EDEDEE}
    .fil3 {fill:#0098DA}
    .fil2 {fill:#0098DA}
    .fil4 {fill:#244656}
    .fil1 {fill:#244656}
    .fil5 {fill:#2E4B73}
   ]]>
  </style>
    <clipPath id="id0">
     <path d="M777 1477l3584 0 0 3480 -3584 0 0 -3480z"/>
    </clipPath>
   <clipPath id="id1">
    <path d="M6799 4091l3415 0 0 1402 -3415 0 0 -1402z"/>
   </clipPath>
 </defs>
 <g id="Capa_x0020_1">
  <metadata id="CorelCorpID_0Corel-Layer"/>
  <g id="_2677795032576">
   <g style="clip-path:url(#id0)">
    <image x="777" y="1477" width="3583" height="3480" xlink:href="logoSmart360_Images\logoSmart360_ImgID1.png"/>
   </g>
  </g>
  <path class="fil0" d="M3414 2828c343,49 855,-151 782,-712 -621,-345 -908,-276 -998,-294 -90,-18 -1368,-198 -1809,675 -441,873 45,864 50,1033 5,170 -338,137 -365,686 -27,549 1303,617 1488,603 184,-14 1473,-396 1545,-909 72,-513 -351,-801 -657,-873 -306,-72 -379,-259 -36,-209z"/>
  <path class="fil1" d="M5052 2806c-27,-154 -33,-277 -189,-315 -459,-113 -326,589 -329,1093 -3,602 406,378 458,312 102,-131 40,-689 56,-905l336 8c17,298 -135,1007 274,986 365,-18 195,-480 244,-995l346 6c17,255 -72,829 108,946 121,79 304,32 360,-68 62,-107 33,-345 33,-481 0,-364 70,-691 -216,-850 -120,-67 -287,-77 -410,-4 -128,75 -149,173 -201,255l-22 27c-96,-183 -142,-339 -431,-336 -214,3 -363,163 -417,321zm2300 197l482 -15 3 489 -469 0 -16 -474zm479 564c18,129 4,256 103,328 88,65 246,49 323,-11 141,-108 91,-538 91,-755 3,-772 -359,-645 -1061,-636 -264,3 -420,150 -441,404 -14,165 -19,653 21,796 56,197 284,355 540,273 221,-69 320,-287 424,-399zm2301 -576c194,-3 308,-61 298,-268 -8,-187 -126,-228 -305,-229 0,-216 35,-420 -130,-493 -183,-82 -346,28 -365,195 -36,311 -1,859 -2,1197 -1,211 -9,370 127,475 198,154 820,222 759,-183 -27,-184 -193,-208 -389,-208l7 -486zm-1163 2c132,-4 389,26 488,-39 229,-149 73,-596 -295,-439 -133,57 -125,170 -200,294 -82,-117 12,-262 -179,-316 -457,-127 -326,617 -328,1091 -3,607 425,362 462,314 96,-121 36,-702 52,-905z"/>
  <path class="fil2" d="M2755 3161c340,28 917,140 954,536 115,-56 220,-157 332,-227 140,29 161,158 285,184 -84,-512 -620,-697 -1064,-773 -96,-16 -413,-49 -527,-12l20 292z"/>
  <path class="fil2" d="M915 4387c117,330 507,462 806,523 746,150 1827,-89 2299,-590 67,-71 173,-199 186,-293 38,1 72,7 113,11 45,6 75,18 120,13 -19,-41 -322,-359 -349,-369 -37,-13 -138,83 -178,118 -60,53 -148,100 -161,148 62,17 123,19 185,34 -19,70 -126,176 -177,230 -203,214 -687,389 -995,454 -168,36 -326,49 -483,56 -158,7 -493,-17 -653,-70 -177,-59 -431,-159 -503,-362 -102,-285 140,-477 282,-609l-41 -115c-52,16 -158,113 -198,149 -163,142 -347,410 -253,672z"/>
  <g style="clip-path:url(#id1)">
   <image x="6799" y="4091" width="3415" height="1402" xlink:href="logoSmart360_Images\logoSmart360_ImgID2.png"/>
  </g>
  <g id="_2677795035424">
   <path class="fil3" d="M8193 5166c0,-260 -88,-385 536,-328 162,15 121,130 121,367 0,124 -329,92 -448,92 -96,0 -209,-44 -209,-131zm-164 -566c0,666 -86,842 552,842 490,0 433,-197 433,-513 0,-257 -390,-235 -612,-224 -117,6 -138,38 -209,79 0,-439 -56,-408 493,-408 182,0 164,89 164,184l164 0c0,-106 14,-218 -114,-281 -117,-57 -309,-48 -453,-48 -307,0 -418,98 -418,369z"/>
   <path class="fil3" d="M9297 5087l0 -487c0,-252 145,-237 388,-237 60,0 152,12 193,28 43,17 91,73 91,130l0 632c0,149 -199,158 -329,158 -227,0 -343,-19 -343,-224zm-164 -487c0,620 -86,842 522,842 268,0 478,-63 478,-329l0 -553c0,-106 -47,-201 -115,-253 -99,-77 -295,-76 -437,-76 -304,0 -448,102 -448,369z"/>
   <path class="fil3" d="M6925 4534c0,108 -18,92 164,92 0,-193 -29,-263 298,-263 32,0 220,13 246,20 126,32 107,339 -27,370 -204,46 -308,-82 -308,97 0,118 433,-77 433,184 0,182 26,249 -150,263 -115,9 -438,29 -493,-65 -71,-122 94,-211 -133,-211 -60,0 -45,37 -45,132 0,243 203,289 477,289 467,0 508,-85 508,-395 0,-129 -61,-199 -179,-223l77 -37c27,-17 38,-31 52,-60 21,-45 35,-121 35,-180 0,-301 -193,-316 -493,-316 -277,0 -462,57 -462,303z"/>
  </g>
  <path class="fil1" d="M702 1642c279,-81 577,-208 862,-300 2182,-705 4885,-1041 7147,-747 1198,156 2873,593 3598,1641 88,128 134,222 207,367 138,277 206,627 179,976 -53,669 -463,1230 -775,1526 -464,441 -881,625 -1500,819 -2274,713 -5848,1009 -8114,269 -1249,-408 -2184,-1316 -1569,-2655 165,-359 448,-752 738,-982 137,-109 192,-151 158,-401 -468,234 -1073,812 -1337,1281 -361,642 -414,1411 -36,2067 309,537 889,920 1464,1168 620,269 1327,445 2062,548 1566,219 3347,135 4890,-121 786,-130 1389,-303 2116,-516 948,-278 1780,-780 2312,-1621 733,-1158 514,-2637 -367,-3361 -580,-477 -353,-371 -1168,-788 -1839,-942 -4813,-930 -6818,-634 -859,126 -2314,485 -3129,805 -233,92 -727,271 -916,393l-4 266z"/>
  <path class="fil4" d="M1363 3659c-403,-320 -367,-665 -281,-898 215,-583 1178,-1085 2163,-1010 140,11 383,40 525,101 20,-25 32,-50 48,-79 19,-32 19,-61 52,-85 48,42 327,470 325,494 -2,34 -197,26 -271,25 -110,-2 -227,19 -304,-9 12,-52 44,-92 59,-141 -112,-41 -323,-52 -430,-60 -422,-32 -950,143 -1220,288 -147,79 -257,169 -357,263 -101,95 -260,323 -276,464 -18,155 -21,390 226,586 348,277 761,268 1031,277l141 112c-53,21 -253,14 -327,13 -297,-3 -783,-87 -1104,-341z"/>
  <g id="_2677795036672">
   <path class="fil5" d="M10884 2180c0,-185 151,-342 301,-342 107,0 201,10 284,101 193,210 64,563 -243,570 -180,4 -342,-144 -342,-329zm759 0c0,-135 -53,-221 -121,-295 -1,-1 -3,-3 -5,-5l-49 -44c-185,-145 -501,-99 -622,161 -210,451 405,832 712,421 41,-54 85,-145 85,-238z"/>
   <path class="fil5" d="M11206 2139l-62 0 0 -135 83 0c42,0 73,22 73,62 0,58 -36,73 -94,73zm-176 -166l0 415c0,43 32,31 114,31l0 -187c74,0 59,0 101,76 22,41 44,72 65,111l115 0c-5,-49 -78,-158 -104,-207 90,-61 83,-71 83,-177 0,-146 -218,-143 -323,-125 -42,7 -51,16 -51,63z"/>
  </g>
 </g>
</svg>
