<?xml version="1.0" encoding="UTF-8"?>
<!DOCTYPE svg PUBLIC "-//W3C//DTD SVG 1.1//EN" "http://www.w3.org/Graphics/SVG/1.1/DTD/svg11.dtd">
<!-- Creator: CorelDRAW X7 -->
<svg xmlns="http://www.w3.org/2000/svg" xml:space="preserve" width="200mm" height="130mm" version="1.1" style="shape-rendering:geometricPrecision; text-rendering:geometricPrecision; image-rendering:optimizeQuality; fill-rule:evenodd; clip-rule:evenodd"
viewBox="0 0 20000 13000"
 xmlns:xlink="http://www.w3.org/1999/xlink">
 <defs>
  <style type="text/css">
   <![CDATA[
    .str4 {stroke:#606062;stroke-width:50}
    .str3 {stroke:#FEFEFE;stroke-width:20}
    .str6 {stroke:#3DB4BE;stroke-width:20}
    .str5 {stroke:#C73C78;stroke-width:20}
    .str2 {stroke:#3DB4BE;stroke-width:7.62}
    .str1 {stroke:#9BE5A6;stroke-width:7.62}
    .str0 {stroke:#C73C78;stroke-width:7.62}
    .fil11 {fill:none}
    .fil10 {fill:#848688}
    .fil9 {fill:#3DB4BE}
    .fil5 {fill:#81D9CB}
    .fil8 {fill:#9BE5A6}
    .fil2 {fill:#C73C78}
    .fil6 {fill:#CADFAA}
    .fil7 {fill:#E5EAAC}
    .fil0 {fill:#EEEAE0}
    .fil3 {fill:#F6AB81}
    .fil1 {fill:#FDFB94}
    .fil4 {fill:#FEFEFE}
   ]]>
  </style>
 </defs>
 <g id="Capa_x0020_1">
  <metadata id="CorelCorpID_0Corel-Layer"/>
  <path class="fil0" d="M18644 12746l1001 0 -784 -925c-95,-109 -185,-188 -298,-293l-1240 -466c152,143 271,412 471,634 111,123 89,98 181,215l669 835z"/>
  <path class="fil1" d="M4154 8570l-1017 1337c-151,213 -174,300 -521,301 -148,160 -70,28 -114,192l189 29 -1958 2317 455 0 941 -1170c220,-292 804,-909 923,-1181l764 -4 -825 1193c-70,90 -130,135 -212,244l-640 918 573 0c105,-205 600,-994 786,-1122 27,-173 -18,-20 61,-159l299 -439c125,-207 326,-421 387,-636l3027 3 -404 1317 -342 1036 529 0 334 -1198 27 -67 276 -1072 725 -9 296 -164 -936 -34 475 -1790c167,-612 72,-436 237,-536l-178 -167c-473,-101 -1926,-31 -2505,-31 -682,-1 -803,-96 -1071,182 -186,192 -467,466 -581,710z"/>
  <path class="fil0" d="M11254 8391l868 303c242,-253 857,-274 1316,-265 360,8 1042,37 1189,331 -284,435 -1225,163 -1672,307 656,250 1333,539 1981,811 329,138 691,328 1061,335 457,7 916,-9 1370,-11 -96,-174 -1671,-1986 -1994,-2258l-140 -16c111,88 121,75 162,231l-2812 -6c-119,-426 -566,-251 -1026,-248l-303 486z"/>
  <path class="fil2 str0" d="M8523 7947c75,221 436,831 570,1052 213,351 406,682 594,1037l333 492c122,-168 172,-327 322,-434 26,-196 301,-669 449,-795 30,-203 15,-92 116,-304l-192 -18c-17,-641 -148,241 -113,-959 9,-309 52,-199 -45,-473 -122,-344 34,-148 -79,-380 -111,-35 19,-86 -67,53 -1,2 -29,88 -36,105 -2,-58 -23,-174 -23,-193l15 -132c55,-217 -96,-502 -181,-702 -174,104 -1488,1441 -1663,1651z"/>
  <path class="fil0" d="M3498 11624c56,187 579,97 770,97 285,-1 569,0 854,0 567,0 1185,23 1746,-11l404 -1317 -3027 -3c-61,215 -262,429 -387,636l-299 439c-79,139 -34,-14 -61,159z"/>
  <polygon class="fil0" points="9956,12746 13826,12746 13472,11643 9975,11652 "/>
  <path class="fil0" d="M2712 12746l3814 0 342 -1036c-561,34 -1179,11 -1746,11 -285,0 -569,-1 -854,0 -191,0 -714,90 -770,-97 -186,128 -681,917 -786,1122z"/>
  <path class="fil3" d="M13769 11892l319 228c306,43 571,148 848,192 313,49 684,34 1003,23 725,-24 1170,-164 1592,-472 10,-409 -132,-267 -374,-472 -688,-182 -1143,-266 -1914,-226 -367,19 -649,59 -953,155 -314,100 -543,222 -521,572z"/>
  <path class="fil1" d="M11171 8526l1924 763 2128 918 -3953 29c129,120 133,115 296,154l1464 -6 399 5c509,-14 1956,-81 2363,59 709,244 1118,325 1365,943 242,205 384,63 374,472 107,89 629,772 677,883l436 0 -669 -835c-92,-117 -70,-92 -181,-215 -200,-222 -319,-491 -471,-634l1240 466c-126,-183 -95,-178 -285,-332 -244,-108 -538,-208 -812,-317 -410,-164 -508,-141 -662,-494l790 -2c-109,-111 -95,-121 -227,-181 -454,2 -913,18 -1370,11 -370,-7 -732,-197 -1061,-335 -648,-272 -1325,-561 -1981,-811 -176,-212 -667,-8 -833,-373l-868 -303 -83 135z"/>
  <path class="fil4" d="M9968 11030l-418 -15 -34 373c-377,204 -1580,-45 -2100,93l-27 67c39,134 -39,75 125,101l1994 1 -42 1096 490 0 19 -1094 3497 -9 354 1103 516 0c-38,-117 -88,-225 -132,-331 -21,-48 -51,-117 -69,-162 -45,-108 13,74 -53,-133l-319 -228c-160,-218 7,-497 60,-423l-400 -1080 -399 -5 322 1027c-258,72 -3056,69 -3379,9l-5 -390z"/>
  <path class="fil0" d="M10342 10094c313,-32 659,106 928,142l3953 -29 -2128 -918c4,196 162,665 285,837 -29,24 -158,154 -320,113 -142,-35 -300,-678 -364,-853l-1484 3c-227,3 -330,56 -421,-90 -148,126 -423,599 -449,795z"/>
  <path class="fil0" d="M13769 11892c-22,-350 207,-472 521,-572 304,-96 586,-136 953,-155 771,-40 1226,44 1914,226 -247,-618 -656,-699 -1365,-943 -407,-140 -1854,-73 -2363,-59l400 1080c-53,-74 -220,205 -60,423z"/>
  <path class="fil0" d="M9968 11030l5 390c323,60 3121,63 3379,-9l-322 -1027 -1464 6 33 252c-357,312 -1001,403 -1631,388z"/>
  <path class="fil0" d="M7055 12746l2411 0 42 -1096 -1994 -1c-164,-26 -86,33 -125,-101l-334 1198z"/>
  <path class="fil5" d="M8713 10236l-296 164 -43 241c261,221 727,368 1176,374l418 15c630,15 1274,-76 1631,-388l-33 -252c-163,-39 -167,-34 -296,-154 -269,-36 -615,-174 -928,-142 -150,107 -200,266 -322,434l-333 -492 -974 200z"/>
  <path class="fil6" d="M7642 9382l-2638 -24 -578 839 2894 6c133,-203 197,-593 322,-821z"/>
  <path class="fil0" d="M1188 12746l951 0 640 -918c82,-109 142,-154 212,-244l825 -1193 -764 4c-119,272 -703,889 -923,1181l-941 1170z"/>
  <path class="fil0" d="M14088 12120c66,207 8,25 53,133 18,45 48,114 69,162 44,106 94,214 132,331l3866 0c-48,-111 -570,-794 -677,-883 -422,308 -867,448 -1592,472 -319,11 -690,26 -1003,-23 -277,-44 -542,-149 -848,-192z"/>
  <path class="fil7" d="M11557 7905c460,-3 907,-178 1026,248l2812 6c-41,-156 -51,-143 -162,-231l140 16c-162,-349 -253,-271 -740,-267 -322,3 -646,1 -968,1 -499,0 -1578,-79 -1994,43l-114 184z"/>
  <path class="fil0" d="M7416 11481c520,-138 1723,111 2100,-93l34 -373c-449,-6 -915,-153 -1176,-374l43 -241 -725 9 -276 1072z"/>
  <path class="fil3" d="M12122 8694c166,365 657,161 833,373 447,-144 1388,128 1672,-307 -147,-294 -829,-323 -1189,-331 -459,-9 -1074,12 -1316,265z"/>
  <path class="fil0" d="M3276 10204c1090,5 488,105 1286,-808 148,-168 31,-13 150,-192l431 -633c-713,-19 -454,-99 -880,411l-987 1222z"/>
  <path class="fil0" d="M733 12746l1958 -2317 -189 -29c-330,265 -1246,1392 -1579,1735 -186,192 -386,399 -528,611l338 0z"/>
  <path class="fil8 str1" d="M7702 1071c27,213 517,630 674,791 135,139 227,238 361,379 149,157 203,305 429,269 193,19 53,21 230,-67 260,-129 470,-224 820,-147 626,138 546,379 943,541 -52,-273 42,-75 -124,-277 -143,-174 -441,-348 -684,-350 -1,-128 -76,-8 151,-187 5,-4 17,-15 22,-19 324,-229 830,-53 810,-282 0,-2 -6,-12 -4,-18l312 -35c223,-81 22,-66 317,-136l510 -136c94,225 209,247 341,300 -50,-281 -17,-139 -176,-338 -232,-289 -432,-448 -757,-664 -1711,-1141 -3881,-242 -4175,376z"/>
  <path class="fil9 str2" d="M10532 4830c-39,47 116,56 -222,159 -31,10 -190,19 -229,19 -496,7 -680,-80 -1086,-334 -443,265 -376,110 -661,341 -6,5 -77,66 -170,80 -204,30 -211,-59 -421,75 -257,165 -144,153 -496,72 90,295 273,610 324,898 -40,165 -83,13 131,381 81,139 118,236 200,370 134,222 365,577 409,818l178 167 34 71c175,-210 1489,-1547 1663,-1651l1247 -1304c-126,-213 -311,-266 -402,-504 -253,50 -105,6 -296,152 -14,11 -118,92 -123,96 -122,109 -47,-9 -80,94z"/>
  <path class="fil8 str1" d="M11159 2837c-73,296 208,346 167,846 -39,475 -274,554 -295,805 91,238 276,291 402,504l63 0c62,-203 232,-313 442,-523 175,-174 307,-310 482,-485 325,-326 597,-654 1017,-976 -77,-69 -145,-621 -407,-1076 -166,-287 -131,-229 -220,-235 -132,-53 -247,-75 -341,-300l-510 136c-295,70 -94,55 -317,136l-312 35c-2,6 4,16 4,18 20,229 -486,53 -810,282 -5,4 -17,15 -22,19 -227,179 -152,59 -151,187 243,2 541,176 684,350 166,202 72,4 124,277z"/>
  <path class="fil2 str0" d="M10186 6296c85,200 236,485 181,702l-15 132c0,19 21,135 23,193 7,-17 35,-103 36,-105 86,-139 -44,-88 67,-53 113,232 -43,36 79,380 97,274 54,164 45,473 -35,1200 96,318 113,959l192 18 264 -469 83 -135 303 -486 114 -184c130,-354 348,-633 514,-954 92,-178 146,-297 259,-481 124,-203 211,-282 253,-544l-202 266 -999 -1016 -63 0 -1247 1304z"/>
  <path class="fil9 str2" d="M6887 4887c-30,-402 -87,-506 -68,-968 89,-56 9,-3 117,-25 236,-49 112,18 227,-209l407 60c49,-112 -13,-25 49,-175 115,128 48,181 383,147 229,-23 240,0 553,13 22,229 91,398 234,525l92 62c-87,-553 -433,-747 137,-1568 109,-157 65,-56 148,-239 -226,36 -280,-112 -429,-269 -134,-141 -226,-240 -361,-379 -157,-161 -647,-578 -674,-791 -268,121 -471,442 -633,694 -385,599 -579,1338 -521,2095l154 809c116,291 48,132 185,218z"/>
  <path class="fil9 str2" d="M6887 4887c-47,195 71,357 252,659 272,453 178,483 432,594 -51,-288 -234,-603 -324,-898 352,81 239,93 496,-72 210,-134 217,-45 421,-75 93,-14 164,-75 170,-80 285,-231 218,-76 661,-341 406,254 590,341 1086,334 39,0 198,-9 229,-19 338,-103 183,-112 222,-159 -497,8 -547,161 -1026,-56 -339,-153 -289,-161 -495,-361 -101,-97 -62,-74 -130,-96l-92 -62c-143,-127 -212,-296 -234,-525 -313,-13 -324,-36 -553,-13 -335,34 -268,-19 -383,-147 -62,150 0,63 -49,175l-407 -60c-115,227 9,160 -227,209 -108,22 -28,-31 -117,25 -19,462 38,566 68,968z"/>
  <path class="fil0" d="M5924 8035c425,-9 1059,-75 1234,264 -526,212 -953,145 -1575,150 -133,344 -438,588 -579,909l2638 24 461 -1514 -2152 14 -27 153z"/>
  <path class="fil3" d="M11496 5006l1006 1024 203 -269c61,-20 1,79 163,-178l435 -888c181,-519 148,-1021 148,-1687 -423,325 -697,654 -1024,983 -176,176 -309,313 -486,489 -211,210 -382,322 -445,526z"/>
  <path class="fil0" d="M8713 10236l974 -200c-188,-355 -381,-686 -594,-1037 -134,-221 -495,-831 -570,-1052l-34 -71c-165,100 -70,-76 -237,536l-475 1790 936 34z"/>
  <path class="fil0" d="M10907 8995c-101,212 -86,101 -116,304 91,146 194,93 421,90l1484 -3c64,175 222,818 364,853 162,41 291,-89 320,-113 -123,-172 -281,-641 -285,-837l-1924 -763 -264 469z"/>
  <path class="fil3" d="M5297 8351l286 98c622,-5 1049,62 1575,-150 -175,-339 -809,-273 -1234,-264l-335 25 -387 187c35,72 -67,17 95,104z"/>
  <path class="fil0" d="M18278 11196c-57,-73 -89,-97 -153,-175 -87,-107 -83,-121 -175,-225 -160,-179 -209,-183 -356,-413l-790 2c154,353 252,330 662,494 274,109 568,209 812,317z"/>
  <path class="fil0" d="M2616 10208c347,-1 370,-88 521,-301l1017 -1337c-106,25 6,-37 -99,40l-658 760c-133,159 -265,246 -391,406 -155,195 -216,267 -390,432z"/>
  <path class="fil0" d="M5297 8351c-162,-87 -60,-32 -95,-104l387 -187c69,-79 34,-92 64,-184l-542 10c-120,296 -215,275 -369,534l431 1c148,-41 33,19 124,-70z"/>
  <g id="_2658691658784">
   <g>
    <g>
     <path class="fil10" d="M17735 1857c-11,-11 -23,-16 -37,-16 -15,0 -27,5 -38,16l-541 541 -235 -234c-21,-21 -45,-31 -73,-31 -28,0 -53,10 -74,31 -20,20 -31,45 -31,73l0 730c0,29 11,53 31,74 21,20 46,31 74,31l730 0c28,0 53,-11 73,-31 21,-21 31,-45 31,-74 0,-28 -10,-52 -31,-73l-234 -235 541 -541c11,-11 16,-23 16,-37 0,-15 -5,-27 -16,-38l-186 -186z"/>
     <path class="fil10" d="M19179 599c-20,-21 -45,-31 -73,-31l-730 0c-29,0 -53,10 -74,31 -20,20 -31,45 -31,73 0,28 11,53 31,74l235 234 -541 541c-11,11 -16,24 -16,38 0,14 5,27 16,37l186 186c11,11 23,17 37,17 14,0 27,-6 38,-17l541 -541 235 235c20,20 45,31 73,31 28,0 53,-11 73,-31 21,-21 31,-45 31,-74l0 -730c0,-28 -10,-53 -31,-73z"/>
    </g>
   </g>
   <g>
   </g>
   <g>
   </g>
   <g>
   </g>
   <g>
   </g>
   <g>
   </g>
   <g>
   </g>
   <g>
   </g>
   <g>
   </g>
   <g>
   </g>
   <g>
   </g>
   <g>
   </g>
   <g>
   </g>
   <g>
   </g>
   <g>
   </g>
   <g>
   </g>
  </g>
  <rect class="fil11 str3" x="16251" y="110" width="3293" height="3367"/>
  <path class="fil11 str4" d="M10020 10528c3283,-5833 2845,-4825 3283,-5833 437,-1009 189,-3337 -1832,-4230 -2021,-894 -3824,289 -4262,1087 -438,798 -1242,1832 -70,3994 1172,2163 2881,4982 2881,4982z"/>
  <ellipse class="fil11 str4" cx="10008" cy="3579" rx="1319" ry="1306"/>
  <ellipse class="fil2 str5" cx="10349" cy="7831" rx="620" ry="1555"/>
  <ellipse class="fil9 str6" cx="7649" cy="3805" rx="1011" ry="1035"/>
  <ellipse class="fil9 str6" cx="8404" cy="5258" rx="936" ry="960"/>
  <ellipse class="fil9 str6" cx="7768" cy="4553" rx="798" ry="1172"/>
  <rect class="fil11" x="395" y="110" width="19149" height="12636"/>
 </g>
</svg>
